<svg xmlns="http://www.w3.org/2000/svg" fill="none" viewBox="0 0 60 40">
  <path fill="#231F20" d="M59.5 19.627s-9.956 19.51-29.5 19.51S.5 19.627.5 19.627 10.456.137 30 .137s29.5 19.49 29.5 19.49Z"/>
  <path fill="#fff" d="M54.58 19.627S46.303 35.885 30 35.885c-16.303 0-24.58-16.258-24.58-16.258S13.716 3.388 30 3.388s24.58 16.24 24.58 16.24Z"/>
  <path fill="#42ADE2" d="M43.178 19.627c0 2.603-.779 5.147-2.237 7.311a13.25 13.25 0 0 1-5.958 4.847 13.381 13.381 0 0 1-7.67.749 13.31 13.31 0 0 1-6.796-3.602 13.125 13.125 0 0 1-3.632-6.737 13.054 13.054 0 0 1 .755-7.604 13.185 13.185 0 0 1 4.889-5.905 13.356 13.356 0 0 1 7.375-2.218 13.355 13.355 0 0 1 5.082.996c1.612.66 3.076 1.63 4.31 2.852a13.133 13.133 0 0 1 2.876 4.272 13.044 13.044 0 0 1 1.006 5.04Z"/>
  <path fill="#231F20" d="M37.274 19.627a7.262 7.262 0 0 1-1.242 4.06 7.357 7.357 0 0 1-3.308 2.69 7.429 7.429 0 0 1-4.258.416 7.39 7.39 0 0 1-3.774-2 7.287 7.287 0 0 1-2.017-3.74 7.247 7.247 0 0 1 .42-4.222 7.32 7.32 0 0 1 2.714-3.279 7.416 7.416 0 0 1 4.095-1.231c1.954 0 3.829.77 5.211 2.14a7.275 7.275 0 0 1 2.159 5.166Z"/>
</svg>
