<svg xmlns="http://www.w3.org/2000/svg" fill="none" viewBox="0 0 40 59">
  <path fill="#616466" d="M16.088 54.268c0 1.026.412 2.01 1.143 2.736a3.919 3.919 0 0 0 2.76 1.133 3.919 3.919 0 0 0 2.759-1.133 3.853 3.853 0 0 0 1.142-2.736H16.09Z"/>
  <path fill="#FFCE31" d="M13.105 44.614h13.771c.823-4.173 3.424-8.232 6.16-12.48C36.21 27.201 39.48 22.1 39.48 17.15 39.48 7.666 30.74.08 19.99.08 9.24.08.5 7.666.5 17.15c0 4.95 3.27 10.052 6.446 14.983 2.735 4.249 5.336 8.308 6.159 12.48Z"/>
  <path fill="#C79127" d="M12.818 28.075c0-.209.134-.323.248-.342a.251.251 0 0 1 .153 0c.071.034.136.078.192.133.334.418.587.894.746 1.404l.172.588a2.17 2.17 0 0 1-1.033-.475 1.517 1.517 0 0 1-.478-1.308Zm6.58-3.377a.647.647 0 0 1 .592-.38.655.655 0 0 1 .593.38 1.149 1.149 0 0 1 0 1.1c-.142.29-.315.563-.516.816a5.44 5.44 0 0 1-.536-.815 1.19 1.19 0 0 1-.134-1.157v.056Zm6.426 4.552c.159-.51.411-.985.746-1.403a.71.71 0 0 1 .191-.133.251.251 0 0 1 .153 0c.115 0 .21.133.249.342a1.506 1.506 0 0 1-.478 1.29c-.3.25-.664.414-1.052.474l.191-.57ZM14.577 30.75c.134.569.268 1.138.421 1.707.249 1.043.498 2.067.746 3.053a694.117 694.117 0 0 0 2.315 9.161h.573c-.516-2.427-1.205-5.69-2.046-9.312l-.708-3.073c-.134-.512-.23-1.043-.363-1.574a8.79 8.79 0 0 0 4.475-2.788 8.79 8.79 0 0 0 4.476 2.788c-.134.531-.23 1.062-.363 1.574l-.708 3.073c-.842 3.793-1.53 6.885-2.047 9.312h.574c.631-2.408 1.416-5.519 2.315-9.16.248-.987.497-2.01.746-3.054.153-.57.287-1.138.42-1.707a3.324 3.324 0 0 0 1.913-.778 2.313 2.313 0 0 0 .727-2.048 1.305 1.305 0 0 0-.88-1.005 1.426 1.426 0 0 0-.803 0c-.224.08-.427.21-.593.379a4.899 4.899 0 0 0-.918 1.726c-.096.284-.172.569-.249.835-.962-.1-1.87-.491-2.601-1.12a5.891 5.891 0 0 1-1.569-1.441c.338-.341.622-.732.842-1.157.132-.263.222-.544.268-.835.025-.33-.048-.659-.21-.948a1.621 1.621 0 0 0-.842-.74 1.794 1.794 0 0 0-1.148 0 1.699 1.699 0 0 0-.802.675 1.676 1.676 0 0 0-.25 1.013c.046.29.136.572.268.835.227.421.51.81.841 1.157a5.89 5.89 0 0 1-1.568 1.441 4.745 4.745 0 0 1-2.601 1.12c0-.266-.153-.55-.249-.835a4.899 4.899 0 0 0-.918-1.726 1.589 1.589 0 0 0-.593-.38 1.426 1.426 0 0 0-.803 0 1.32 1.32 0 0 0-.88 1.006 2.296 2.296 0 0 0 .727 2.048c.586.466 1.314.72 2.065.721v.057Z"/>
  <path fill="#94989B" d="M27.01 46.491H13.028v1.783H27.01v-1.783ZM26.035 50.057H14.004v1.783h12.03v-1.783Z"/>
  <path fill="#616466" d="M26.035 48.274H14.004v1.783h12.03v-1.783Z"/>
  <path fill="#94989B" d="m27.01 46.491-13.006 3.566v1.764l13.006-3.547v-1.783ZM25.06 53.604H14.98v1.783h10.08v-1.783Z"/>
  <path fill="#616466" d="M25.06 51.82H14.98v1.784h10.08V51.82Z"/>
  <path fill="#94989B" d="m26.035 50.057-11.056 3.547v1.782l11.056-3.565v-1.764Z"/>
</svg>
