<svg xmlns="http://www.w3.org/2000/svg" fill="none" viewBox="0 0 58 60">
  <path fill="#94989B" d="M22.135 45.96 11.703 36.1s-4.435 6.116-4.435 11.113h14.347a1.718 1.718 0 0 1 .52-1.254Z"/>
  <path fill="#333" d="M24.006 45.882C19.494 47.31 10.16 38.01 11.588 33.515l1.195-3.724 14.964 14.914-3.741 1.177Z"/>
  <path fill="#333" d="M12.475 5.365a17.118 17.118 0 0 0-4.821 11.036c-.54 7.602 2.912 16.477 9.95 23.5 7.038 7.023 15.947 10.457 23.563 9.898a17.157 17.157 0 0 0 11.088-4.785L12.475 5.365Z"/>
  <path fill="#42ADE2" d="M40.338 6.04c1.928 1.563 3.857 3.377 5.785 5.345s3.857 3.975 5.38 5.788a12.793 12.793 0 0 0-4.03-7.196 13.014 13.014 0 0 0-7.135-3.936ZM57.52 18.1a24.333 24.333 0 0 0-6.495-11.592A24.312 24.312 0 0 0 39.413.06c3.046 2.527 6.247 5.44 9.448 8.624 3.201 3.183 6.094 6.463 8.658 9.415Z"/>
  <path fill="#94989B" d="M52.12 45.11c-3.085 3.068-14.481-3.318-25.453-14.277S9.312 8.53 12.34 5.462C15.367 2.394 26.82 8.78 37.793 19.739 48.765 30.7 55.186 42.081 52.12 45.11Z"/>
  <path fill="#333" d="m30.1 30.08-2.662-2.623 11.898-10.149.945.926-10.182 11.847Z"/>
  <path fill="#DA5B52" d="M29.501 33.534a76.311 76.311 0 0 1-5.572-5.537l4.396-3.01 4.185 4.168-3.009 4.38Z"/>
  <path fill="#333" d="M44.696 18.447a3.857 3.857 0 0 1-5.572 0 3.86 3.86 0 0 1 0-5.538 3.854 3.854 0 0 1 5.572 0 3.86 3.86 0 0 1 0 5.538ZM7.268 47.213a4.762 4.762 0 0 0-4.763 4.747v5.151h8.504v-9.898H7.27Z"/>
  <path fill="#616161" d="M21.615 47.213h-11.57v9.898h16.352V51.96a4.767 4.767 0 0 0-4.782-4.747Z"/>
  <path fill="#333" d="M8.965 56.416H.5v2.72h8.465v-2.72Z"/>
  <path fill="#616161" d="M28.402 56.416H7.982v2.72h20.42v-2.72ZM9.814 37.663H7.5v1.486a6.215 6.215 0 0 0-.887 3.299 6.312 6.312 0 0 0 .887 3.3v1.465h2.314c1.754 0 3.181-2.141 3.181-4.765 0-2.624-1.427-4.785-3.181-4.785Z"/>
  <path fill="#333" d="M7.519 47.213c1.757 0 3.182-2.142 3.182-4.785 0-2.642-1.425-4.784-3.182-4.784s-3.182 2.142-3.182 4.785c0 2.642 1.425 4.784 3.182 4.784Z"/>
  <path fill="#0D0D0D" d="M7.943 38.473c1.215 0 2.218 1.775 2.218 3.975s-1.003 3.955-2.218 3.955-2.237-1.775-2.237-3.955 1.003-3.975 2.237-3.975Z"/>
</svg>
