<svg xmlns="http://www.w3.org/2000/svg" fill="none" viewBox="0 0 36 64">
  <path fill="#5C6D6D" d="M35.576 4.193a4.465 4.465 0 0 0-1.32-2.812A4.361 4.361 0 0 0 31.437.137H4.734a4.36 4.36 0 0 0-2.83 1.238A4.465 4.465 0 0 0 .576 4.193v54.869a4.465 4.465 0 0 0 1.328 2.818 4.361 4.361 0 0 0 2.83 1.238h26.703a4.362 4.362 0 0 0 2.82-1.244 4.465 4.465 0 0 0 1.32-2.812V4.192Z"/>
  <path fill="#212528" d="M34.527 58.193a4.253 4.253 0 0 1-1.209 2.638 4.155 4.155 0 0 1-2.605 1.224H5.362a4.155 4.155 0 0 1-2.605-1.224 4.253 4.253 0 0 1-1.209-2.638V5.043A4.233 4.233 0 0 1 2.754 2.4a4.136 4.136 0 0 1 2.61-1.22h25.272c.986.08 1.911.512 2.61 1.22a4.233 4.233 0 0 1 1.205 2.642l.076 53.15Z"/>
  <path fill="#94989B" d="M29.187 3.575c.192 0 .38.057.54.166a.997.997 0 0 1 .147 1.515.97.97 0 0 1-1.06.214.975.975 0 0 1-.436-.363.994.994 0 0 1 .12-1.244.967.967 0 0 1 .689-.288ZM20.928 4.618c0 .27-.134.482-.305.482h-5.246c-.152 0-.286-.212-.286-.482s.134-.503.286-.503h5.246c.171-.019.305.213.305.503Z"/>
  <path fill="#3E4347" d="M32.582 8.017H3.418v47.24h29.164V8.017Z"/>
  <path fill="#94989B" d="M20.909 57.227h-5.837a.73.73 0 0 0-.725.734v1.487a.73.73 0 0 0 .725.734h5.837a.73.73 0 0 0 .725-.734v-1.487a.73.73 0 0 0-.725-.734Z"/>
  <path fill="#42ADE2" d="M10.227 14.564a.82.82 0 0 1-.227.586.8.8 0 0 1-.574.244H6.184a.815.815 0 0 1-.58-.243.836.836 0 0 1-.24-.587V11.28a.82.82 0 0 1 .241-.58.8.8 0 0 1 .579-.232h3.242c.213 0 .417.086.567.238.15.152.234.358.234.574v3.283Z"/>
  <path fill="#C7E755" d="M17.037 14.564c0 .22-.087.431-.24.587a.815.815 0 0 1-.58.243h-3.243a.79.79 0 0 1-.573-.244.812.812 0 0 1-.228-.586V11.28c0-.216.085-.422.235-.574a.796.796 0 0 1 .566-.238h3.243a.792.792 0 0 1 .579.231.813.813 0 0 1 .24.58v3.284Z"/>
  <path fill="#F2B200" d="M23.846 14.564c0 .22-.086.431-.24.587a.815.815 0 0 1-.58.243h-3.243a.79.79 0 0 1-.573-.244.812.812 0 0 1-.228-.586V11.28c0-.216.085-.422.235-.574a.796.796 0 0 1 .566-.238h3.243a.792.792 0 0 1 .579.231.813.813 0 0 1 .241.58v3.284Z"/>
  <path fill="#42ADE2" d="M30.636 14.564a.82.82 0 0 1-.228.586.8.8 0 0 1-.573.244h-3.242a.815.815 0 0 1-.58-.243.836.836 0 0 1-.24-.587V11.28a.82.82 0 0 1 .24-.58.8.8 0 0 1 .58-.232h3.261c.213 0 .416.086.567.238.15.152.234.358.234.574v3.283h-.019Z"/>
  <path fill="#C7E755" d="M6.222 48.42h3.243c.212 0 .416.085.566.238.15.152.235.358.235.573v3.283a.82.82 0 0 1-.235.574.8.8 0 0 1-.566.238H6.222a.815.815 0 0 1-.58-.244.836.836 0 0 1-.24-.587v-3.302a.816.816 0 0 1 .254-.556.796.796 0 0 1 .566-.217Z"/>
  <path fill="#FF435E" d="M12.974 48.42h3.243c.212 0 .416.085.566.238.15.152.235.358.235.573v3.283a.82.82 0 0 1-.235.574.8.8 0 0 1-.566.238h-3.243a.815.815 0 0 1-.58-.244.835.835 0 0 1-.24-.587v-3.302a.816.816 0 0 1 .255-.556.796.796 0 0 1 .565-.217Z"/>
  <path fill="#42ADE2" d="M19.783 48.42h3.243c.212 0 .416.085.566.238.15.152.235.358.235.573v3.283a.82.82 0 0 1-.235.574.8.8 0 0 1-.566.238h-3.243a.815.815 0 0 1-.58-.244.836.836 0 0 1-.24-.587v-3.302a.815.815 0 0 1 .255-.556.796.796 0 0 1 .565-.217Z"/>
  <path fill="#C28FEF" d="M26.574 48.42h3.242c.213 0 .416.085.567.238.15.152.234.358.234.573v3.283a.82.82 0 0 1-.235.574.8.8 0 0 1-.566.238h-3.242a.815.815 0 0 1-.58-.244.836.836 0 0 1-.24-.587v-3.302a.816.816 0 0 1 .254-.556.796.796 0 0 1 .566-.217Z"/>
  <path fill="#C7E755" d="M10.227 33.587a.82.82 0 0 1-.227.586.801.801 0 0 1-.574.245H6.184a.815.815 0 0 1-.58-.243.836.836 0 0 1-.24-.588v-3.283a.82.82 0 0 1 .241-.58.8.8 0 0 1 .579-.231h3.242c.213 0 .417.085.567.238.15.152.234.358.234.573v3.283Z"/>
  <path fill="#C28FEF" d="M17.037 33.587c0 .22-.087.432-.24.588a.815.815 0 0 1-.58.243h-3.243a.794.794 0 0 1-.745-.514.82.82 0 0 1-.056-.317v-3.283c0-.215.085-.421.235-.573a.796.796 0 0 1 .566-.238h3.243a.794.794 0 0 1 .579.23.812.812 0 0 1 .24.581v3.283Z"/>
  <path fill="#42ADE2" d="M23.846 33.587c0 .22-.086.432-.24.588a.815.815 0 0 1-.58.243h-3.243a.794.794 0 0 1-.745-.514.82.82 0 0 1-.056-.317v-3.283c0-.215.085-.421.235-.573a.796.796 0 0 1 .566-.238h3.243a.794.794 0 0 1 .579.23.812.812 0 0 1 .241.581v3.283Z"/>
  <path fill="#FF435E" d="M10.227 27.195a.82.82 0 0 1-.227.586.801.801 0 0 1-.574.244H6.184a.815.815 0 0 1-.58-.243.836.836 0 0 1-.24-.587V23.93a.82.82 0 0 1 .241-.58.8.8 0 0 1 .579-.231h3.242c.213 0 .417.085.567.237.15.152.234.359.234.574v3.283-.02Z"/>
  <path fill="#F2B200" d="M17.037 27.195c0 .22-.087.431-.24.587a.815.815 0 0 1-.58.243h-3.243a.794.794 0 0 1-.745-.514.82.82 0 0 1-.056-.316V23.93c0-.215.085-.422.235-.574a.796.796 0 0 1 .566-.237h3.243a.792.792 0 0 1 .579.23.813.813 0 0 1 .24.58v3.284-.02Z"/>
  <path fill="#C7E755" d="M23.846 27.195c0 .22-.086.431-.24.587a.815.815 0 0 1-.58.243h-3.243a.794.794 0 0 1-.745-.514.82.82 0 0 1-.056-.316V23.93c0-.215.085-.422.235-.574a.796.796 0 0 1 .566-.237h3.243a.792.792 0 0 1 .579.23.813.813 0 0 1 .241.58v3.284-.02Z"/>
  <path fill="#F2B200" d="M30.636 27.195a.82.82 0 0 1-.228.586.801.801 0 0 1-.573.244h-3.242a.815.815 0 0 1-.58-.243.836.836 0 0 1-.24-.587V23.93a.82.82 0 0 1 .24-.58.8.8 0 0 1 .58-.231h3.261c.213 0 .416.085.567.237.15.152.234.359.234.574v3.283l-.019-.02Z"/>
  <path fill="#C28FEF" d="M10.227 20.88a.82.82 0 0 1-.227.585.802.802 0 0 1-.574.245H6.184a.815.815 0 0 1-.58-.243.836.836 0 0 1-.24-.588v-3.283a.82.82 0 0 1 .241-.58.8.8 0 0 1 .579-.231h3.242c.213 0 .417.085.567.238.15.152.234.358.234.573v3.283Z"/>
  <path fill="#42ADE2" d="M17.037 20.88c0 .22-.087.43-.24.587a.815.815 0 0 1-.58.243h-3.243a.79.79 0 0 1-.573-.245.811.811 0 0 1-.228-.586v-3.283c0-.215.085-.421.235-.573a.796.796 0 0 1 .566-.238h3.243a.792.792 0 0 1 .579.23.813.813 0 0 1 .24.581v3.283Z"/>
  <path fill="#FF435E" d="M23.846 20.88c0 .22-.086.43-.24.587a.815.815 0 0 1-.58.243h-3.243a.79.79 0 0 1-.573-.245.811.811 0 0 1-.228-.586v-3.283c0-.215.085-.421.235-.573a.796.796 0 0 1 .566-.238h3.243a.792.792 0 0 1 .579.23.813.813 0 0 1 .241.581v3.283Z"/>
  <path fill="#C28FEF" d="M30.636 20.88a.82.82 0 0 1-.228.585.802.802 0 0 1-.573.245h-3.242a.815.815 0 0 1-.58-.243.836.836 0 0 1-.24-.588v-3.283a.82.82 0 0 1 .24-.58.8.8 0 0 1 .58-.231h3.261c.213 0 .416.085.567.238.15.152.234.358.234.573v3.283h-.019Z"/>
</svg>
