<svg xmlns="http://www.w3.org/2000/svg" viewBox="0 0 646 498" fill="none">
  <path stroke="#1D1D1B" stroke-linecap="round" stroke-linejoin="round" stroke-miterlimit="10" stroke-width=".519" d="M14.323 234.321a2.158 2.158 0 1 0 0-4.315 2.158 2.158 0 0 0 0 4.315Z"/>
  <path fill="#FFE3E3" d="M541.207 288.318c7.885-11.612 17.928-22.063 30.461-28.45 12.533-6.387 27.805-8.212 40.753-2.903 22.991 9.373 32.453 37.325 32.785 62.126.913 55.076-31.789 109.405-80.925 134.455-11.122 5.64-23.323 9.953-35.773 9.787-21.746-.415-41.666-15.179-51.709-34.505-10.043-19.326-11.122-42.302-6.889-63.619 3.901-18.829 38.512-122.013 71.297-76.891ZM65.949 338.749C35.156 287.738 15.9 229.842 10.173 170.536c-3.652-37.16-.498-78.632 25.481-105.507 11.205-11.612 27.224-19.74 43.243-17.501 13.695 1.907 25.315 11.032 34.694 21.234 13.612 14.764 24.07 32.431 30.378 51.509-5.727-17.999 8.3-36.91 24.983-45.869 24.153-12.94 54.199-12.11 79.68-1.908 25.481 10.203 46.729 28.948 64.076 50.099 31.872 38.985 51.875 87.425 56.772 137.524 4.897 50.099-5.312 101.525-29.05 145.901-24.817 46.449-99.351 37.325-148.985 19.326-49.551-17.999-89.391-56.734-117.943-101.027"/>
  <path fill="#9797FD" d="M196.259 183.475c17.762-11.778 42.994.415 61.088 8.212 5.312 2.239 17.513 12.193 23.738 9.705 8.051-3.235 5.976-25.631 14.608-27.29 6.225-1.244 15.189 5.143 21.248 6.719 6.806 1.742 14.525 1.41 21.248 3.65 2.905.995 9.794 3.152 10.956 6.055 3.984 9.953-10.541 22.644 0 27.952 12.45 6.221 27.639 7.134 40.753 11.53 25.73 8.543 50.298 21.151 70.467 39.482 30.212 27.455 39.923 72.909 54.697 109.902 4.15 10.369 7.055 20.322 9.711 30.939.166.581 2.075 2.986 1.245 3.65-3.403 2.571-12.782-2.323-16.434-3.069-15.023-2.986-33.615-4.396-49.219-2.406-37.599 4.728-81.672 5.641-119.105-.58-6.142-.996-12.782.58-18.841.58h-49.8c-15.023 0-29.465-3.815-44.405-4.894-5.81-.414-15.355 1.659-20.086-3.069-7.304-7.299-8.466-28.118-9.711-37.076-4.648-32.349-7.553-66.356-4.897-98.954 1.66-20.073 2.407-39.814 2.407-60.135 0-7.797-5.976-16.672.332-20.903Z"/>
  <path fill="#1D1D1B" d="M196.259 183.475c17.762-11.778 42.994.415 61.088 8.212 5.312 2.239 17.513 12.193 23.738 9.705 8.051-3.235 5.976-25.631 14.608-27.29 6.225-1.244 15.189 5.143 21.248 6.719 6.806 1.742 14.525 1.41 21.248 3.65 2.905.995 9.794 3.152 10.956 6.055 3.984 9.953-10.541 22.644 0 27.952 12.45 6.221 27.639 7.134 40.753 11.53 25.73 8.543 50.298 21.151 70.467 39.482 30.212 27.455 39.923 72.909 54.697 109.902 4.15 10.369 7.055 20.322 9.711 30.939.166.581 2.075 2.986 1.245 3.65-3.403 2.571-12.782-2.323-16.434-3.069-15.023-2.986-33.615-4.396-49.219-2.406-37.599 4.728-81.672 5.641-119.105-.58-6.142-.996-12.782.58-18.841.58h-49.8c-15.023 0-29.465-3.815-44.405-4.894-5.81-.414-15.355 1.659-20.086-3.069-7.304-7.299-8.466-28.118-9.711-37.076-4.648-32.349-7.553-66.356-4.897-98.954 1.66-20.073 2.407-39.814 2.407-60.135 0-7.797-5.976-16.672.332-20.903Z"/>
  <path fill="#FFC4D8" d="M354.374 382.876c-5.478-42.717-14.11-83.858-29.548-95.304-21.58-16.175-60.424 1.576-81.008-13.852-8.051-6.055-8.3-16.672-12.367-26.294-2.49-5.889-.498-17.584-6.972-17.999-8.798-.581-22.659 8.046-31.54 6.553-3.154-.498-10.873-3.733-13.944-1.659-2.739 1.825-3.984 30.358-14.774 38.404-14.027 10.534-40.006 4.645-56.523 7.382-9.379 1.576-15.853 1.327-26.477 8.377-10.79 7.051-7.885 13.189-12.533 18.995-8.881 11.114-13.529 54.246-15.853 68.43-.249 1.659-.664 4.064-.996 6.967h302.535Z"/>
  <path fill="#E4D5D5" d="M359.271 391.419c-5.727-34.588-3.32-80.622-34.362-103.93-20.003-14.93-54.697-.913-76.111-10.949-2.324 1.908-4.648 3.733-7.055 5.474-4.814 3.484-9.794 6.802-15.023 9.622-4.98 2.737-10.209 5.226-15.604 7.133-5.063 1.825-10.209 3.235-15.521 3.899-4.897.663-9.96.663-14.857-.166-4.731-.829-9.379-2.488-13.446-5.06-4.482-2.737-8.3-6.469-11.371-10.7-1.992-2.737-3.735-5.723-5.229-8.792-13.778 2.489-30.793-.083-42.911 1.908-9.379 1.576-15.853 1.327-26.477 8.377-10.79 7.051-5.644 9.29-10.292 15.096-8.881 11.115-15.687 58.145-18.094 72.329-2.739 16.34-14.11 112.806-14.11 112.806 4.731-.249 304.278.58 326.356.58.083.166-5.395-94.309-5.893-97.627Z"/>
  <path fill="#AE4B20" d="M137.744 444.422c.332-19.824 1.079-39.648 2.075-59.472.913-18.165 1.743-36.413 3.32-54.495 1.494-16.589 3.984-33.179 9.13-49.104-.581-1.078-1.162-2.074-1.66-3.152-13.778 2.488-30.793-.083-42.911 1.908-9.379 1.576-15.853 1.327-26.477 8.377-10.79 7.051-5.644 9.29-10.292 15.096-8.881 11.115-15.687 58.145-18.094 72.329-2.739 16.34-14.11 112.805-14.11 112.805 1.743-.082 44.571-.082 98.687.083 0-14.847.083-29.611.332-44.375ZM249.296 278.282c-9.13 10.949-14.193 24.801-17.845 38.487-1.743 6.801-3.237 13.603-4.565 20.487-1.66 8.544-3.403 17.17-4.648 25.796-2.656 17.751-4.15 35.667-4.814 53.583-.664 17.833-.498 35.666.249 53.5.249 6.304.581 12.524.913 18.828 70.301.166 136.701.332 146.661.332 0 0-5.478-94.558-5.976-97.793-5.727-34.588-3.32-80.622-34.362-103.93-19.505-14.681-53.203-1.493-74.7-10.285a3.52 3.52 0 0 0-.913.995Z"/>
  <path fill="#9797FD" d="M148.285 186.544c-30.129 15.013-72.293 49.021-64.574 87.674 4.399 22.063 17.181 40.726 25.896 61.213 4.897 11.447 11.703 22.313 16.019 33.676.664 1.825 1.826 8.378 3.32 9.373 2.49 1.659 14.691-4.064 17.098-4.977 13.778-5.142 26.643-12.359 40.836-17.086 3.818-1.245 12.201-1.576 13.28-6.636.83-4.313-6.059-14.018-7.719-17.667-6.225-13.355-15.604-31.852-17.098-46.865-1.162-11.778 1.245-20.487 4.399-31.436.498-1.742 4.814-11.281 3.901-12.691-1.992-2.903-10.873-4.81-13.778-7.714-8.881-8.875-14.94-25.298-14.94-37.491"/>
  <path fill="#FF6224" d="M361.761 429.408c1.992-26.791 6.059-58.891 26.145-79.047 9.877-9.87 27.058-13.52 33.698-26.708 5.644-11.363 8.383-23.059 8.383-35.832 0-1.41-1.328-11.696.332-12.774 3.901-2.571 12.035-.249 16.434-1.078 8.881-1.742 17.596-4.396 26.394-7.299 2.158-.747 7.47-4.811 9.545-4.397 1.162.249 3.984 16.755 5.146 18.995 5.893 11.695 7.387 15.511 16.185 25.049 2.573 2.738 11.703 7.631 15.272 8.959 10.624 3.981 22.576 3.069 33.283 6.967 44.654 16.091 50.879 50.597 57.851 92.152 1.079 6.304-23.987 1.576-27.805 1.825-21.829 1.244-44.488 5.64-65.902 9.871-10.541 2.073-21.248 4.562-31.872 6.552-9.13 1.742-18.26 1.327-27.473 2.157-7.47.664-14.525 3.401-21.995 4.064-5.478.415-11.039.83-16.434 1.079-3.901.248-7.802 0-11.703 0-7.885.083-46.397 2.073-45.484-10.535Z"/>
  <path fill="#1D1D1B" d="M430.319 275.877c1.162 9.124 8.881 16.589 17.264 19.575 6.64 2.405 13.944 2.156 20.252-.996 6.059-2.986 10.873-8.211 14.525-13.769 1.328-2.073 2.573-4.147 3.735-6.386-1.245-5.475-2.573-12.028-3.32-12.193-2.075-.415-7.387 3.649-9.545 4.396-8.715 2.903-17.43 5.557-26.394 7.299-4.399.912-12.533-1.493-16.434 1.078l-.166.166c0 .332 0 .581.083.83Z"/>
  <path fill="#FFACCC" d="M596.734 486.724c7.138-1.908 12.616-6.138 15.936-15.179 3.569-9.788.83-19.244.83-29.197-3.486-33.095-5.229-74.983-29.631-100.696-8.549-9.041-19.588-15.345-31.208-19.492-10.707-3.898-22.742-2.986-33.283-6.967-2.49-.913-7.636-3.567-11.454-5.972-1.826 1.576-3.652 3.151-5.478 4.644a129.861 129.861 0 0 1-13.612 9.622c-4.648 2.82-9.462 5.392-14.525 7.465a82.557 82.557 0 0 1-14.774 4.645c-4.731.913-9.545 1.327-14.359.996-4.565-.332-9.047-1.411-13.28-3.401-4.233-1.908-7.968-4.728-11.122-8.046-7.138 11.944-23.323 15.677-32.868 25.215-16.683 16.673-37.848 69.426-22.825 138.271 38.844-.083 77.605-.166 116.449-.332l102.671-.249c4.565 0 8.798-.332 12.533-1.327Z"/>
  <path fill="#AE4B20" d="M84.707 289.231c-26.975 6.387-42.247 36.745-52.041 62.624-4.067 10.699-6.64 21.897-9.13 33.012-6.806 30.773-12.782 61.711-18.011 92.816-.747 4.313-.83 6.221-2.241 10.368h109.062c-.498-34.008-2.241-70.421-2.739-104.511-.249-16.506-.498-33.096-3.818-49.27-3.403-16.091-9.628-33.178-21.082-45.039Z"/>
  <path fill="#1D1D1B" d="M111.018 441.021a106.343 106.343 0 0 0-16.434-28.119c-2.407-2.903-4.897-5.723-7.553-8.377-2.324-2.24-4.731-4.645-7.387-6.553-3.154-2.239-6.557-4.064-9.96-5.723-5.312-2.488-19.339-8.626-20.75 1.327-.083.498-.747.498-.996.166-1.66-2.157-3.32-4.313-5.063-6.304-4.814-5.474-10.375-10.119-16.849-13.271-.83 3.566-1.66 7.05-2.407 10.617-6.806 30.773-12.782 61.711-18.011 92.816-.747 4.313-.83 6.221-2.241 10.368h109.062c-.415-15.262-.83-31.105-1.411-46.947Z"/>
  <path stroke="#1D1D1B" stroke-linecap="round" stroke-linejoin="round" stroke-miterlimit="10" stroke-width=".765" d="M84.707 352.767a1302.412 1302.412 0 0 0-7.221 134.62M281.998 490.456v-124.75"/>
  <path fill="#9797FD" d="M121.642 350.942c2.158 8.626 4.233 17.17 6.391 25.796 1.743 6.968 3.486 14.018 6.557 20.488 8.217 17.584 25.315 29.611 43.326 36.662 0 0 6.391 1.244 12.284-2.074 1.992 3.732 6.889 6.055 10.707 4.23 3.818-1.825 4.399-8.377.581-10.119 3.237 2.986 6.557 5.972 10.707 7.465 4.15 1.493 9.213 1.078 12.201-2.074 2.988-3.152 2.573-9.373-1.411-11.114 5.81 4.396 12.45 8.211 19.671 8.792 2.158.166 4.482 0 5.644-2.406.664-1.327.747-2.82.415-4.23-.664-2.571-2.573-4.562-4.316-6.47a227.776 227.776 0 0 1-36.769-53.168c5.561 5.724 11.205 11.447 18.011 15.677 4.316 2.654 9.13 4.562 14.027 5.226 12.367 1.741-10.956-25.05-12.948-27.787-4.399-6.138-6.889-13.437-11.786-19.326-7.636-9.207-20.75-9.871-32.702-10.617-22.908.995-43.243 9.87-60.59 25.049Z"/>
  <path stroke="#1D1D1B" stroke-linecap="round" stroke-linejoin="round" stroke-miterlimit="10" stroke-width=".765" d="M201.654 393.742c6.64 11.861 15.77 22.312 26.726 30.441M174.928 395.816c6.64 11.861 15.77 22.312 26.726 30.441M158.494 397.723c6.64 11.862 15.77 22.313 26.726 30.441M412.972 331.699c2.905 10.949 13.28 18.828 24.319 21.151 11.039 2.322 22.659-.083 33.117-4.313 17.347-6.968 32.619-18.912 43.658-34.008M183.228 312.041c19.754 1.825 41.666-2.655 55.61-16.672"/>
  <path stroke="#1D1D1B" stroke-linecap="round" stroke-linejoin="round" stroke-miterlimit="10" stroke-width=".781" d="M80.391 291.802c-3.154 8.709-1.328 18.58 3.071 26.708 4.399 8.129 11.122 14.765 18.177 20.737.913.746 1.909 1.659 2.241 2.82.498 1.576-.332 3.318-.996 4.894-4.399 10.285-1.909 22.478 4.067 31.851 5.976 9.373 15.023 16.423 24.319 22.561M275.773 286.493c3.901 8.378 3.071 18.58-1.079 26.875-4.067 8.294-11.205 14.93-19.09 19.741 5.561 4.894 7.055 12.939 6.972 20.404-.166 15.096-5.561 30.027-15.023 41.722"/>
  <path stroke="#1D1D1B" stroke-linecap="round" stroke-linejoin="round" stroke-miterlimit="10" stroke-width=".765" d="M137.993 231.418c15.936 12.939 28.386 30.109 35.773 49.269"/>
  <path stroke="#1D1D1B" stroke-linecap="round" stroke-linejoin="round" stroke-miterlimit="10" stroke-width="1.048" d="M.711 488.632h524.56"/>
  <path fill="#FF6224" d="M558.056 323.404s-43.575 9.705-34.445 59.14l4.15 26.045-163.51-.249-19.671 70.753c64.408 5.723 128.733 12.359 193.224 17.335 23.572 1.825 45.982 3.401 67.23-8.46 21.165-11.861 27.722-33.593 22.244-56.569 0-.083-18.675-110.4-69.222-107.995Z"/>
  <path fill="#FF6224" d="M344.58 479.093c-.415 0-.913-.083-1.328-.083-9.711-.498-18.426-2.986-23.987-11.447-4.482-6.884-6.142-15.262-7.055-23.307-.415-4.065-.664-8.046-.83-12.11-.415-8.461 3.237-21.815-1.079-29.197-4.565-7.88-21.58-6.221-22.493-17.916-.332-4.562 5.312-8.627 9.545-8.793 1.826-.082 3.486.747 5.229 1.162.83.166 2.241 1.825 2.324.995.332-3.069-11.205-9.622-10.126-18.663 1.079-9.041 14.525-4.811 14.857-5.557.166-.415-.83-.664-.913-.829-3.486-3.152-10.541-12.276-3.486-15.843 6.225-3.152 13.197 1.659 17.845 5.723 5.395 4.728 11.039 9.788 15.77 15.179 11.537 13.189 19.92 29.363 23.24 46.367 3.154 16.423 18.509 64.78 21.58 77.803-4.98-.498-21.331-1.825-26.394-2.323-4.233-.415-8.466-.912-12.699-1.161Z"/>
  <path stroke="#1D1D1B" stroke-linecap="round" stroke-linejoin="round" stroke-miterlimit="10" stroke-width=".765" d="M298.764 376.075c15.106 4.727 27.141 17.999 30.544 33.427M304.74 354.841c8.798 2.073 16.434 7.879 21.995 15.096 5.478 7.216 9.047 15.676 11.62 24.386M526.267 410.414c5.478-.747 11.039 1.244 16.102 3.567 13.778 6.221 27.141 15.345 33.947 28.865"/>
  <path fill="#FF6224" d="M433.888 281.932c-17.347-9.207-23.987-30.773-14.691-48.192l12.367-23.224c9.213-17.336 30.793-23.972 48.223-14.682 17.347 9.207 23.987 30.773 14.691 48.191l-12.367 23.225c-9.296 17.336-30.876 23.888-48.223 14.682Z"/>
  <path fill="#FF6224" d="M428.729 235.459c6.986-9.537 5.903-22.204-2.419-28.292-8.323-6.089-20.732-3.293-27.718 6.243-6.986 9.537-5.903 22.204 2.419 28.292 8.323 6.088 20.732 3.293 27.718-6.243ZM509.577 276.672c6.986-9.537 5.903-22.204-2.419-28.292-8.323-6.088-20.733-3.293-27.719 6.243-6.986 9.537-5.902 22.204 2.42 28.292 8.322 6.089 20.732 3.293 27.718-6.243Z"/>
  <path stroke="#1D1D1B" stroke-linecap="round" stroke-linejoin="round" stroke-miterlimit="10" stroke-width=".64" d="M490.328 264.264c2.822-4.147 8.051-6.553 13.031-6.138M416.79 211.428c3.818 3.401 5.893 8.709 5.229 13.769"/>
  <path fill="#1D1D1B" d="M450.073 242.615c1.992-1.659 3.486-2.073 5.063-1.41 1.826.747 2.988 3.65 4.731 3.318.332-.083.664-.083.83.166a.646.646 0 0 1-.166.664c-2.49 3.732-6.889 6.055-11.288 6.138-1.245 0-2.49-.083-3.569-.581-2.241-.912-3.818-3.152-4.482-5.474-.664-2.323-.498-4.894.083-7.3 1.328.581 2.573.415 3.984.249 1.494-.166 3.403-1.161 4.648 1.078.249.83.166 2.323.166 3.152Z"/>
  <path stroke="#AE4B20" stroke-linecap="round" stroke-linejoin="round" stroke-miterlimit="10" stroke-width=".601" d="M441.441 238.385c.747 1.244 1.992 2.24 3.403 2.571-.083 1.245-.249 2.489.332 3.567.581 1.078 1.909 1.742 3.154 1.742 1.245 0 2.49-.581 3.403-1.41.249.663 1.079.995 1.826 1.161 2.324.498 4.814.249 7.055-.498"/>
  <path stroke="#1D1D1B" stroke-linecap="round" stroke-linejoin="round" stroke-miterlimit="10" stroke-width=".64" d="M454.472 230.091a7.336 7.336 0 0 1-2.988 3.898c-.332.249-.747.415-.996.83a1.629 1.629 0 0 0 .166 1.824c.415.498.996.913 1.494 1.244.249.166.415.249.747.332"/>
  <path fill="#1D1D1B" d="M465.179 234.984c0 .83-.664 1.493-1.494 1.493s-1.494-.663-1.494-1.493c0-.829.664-1.493 1.494-1.493s1.494.664 1.494 1.493ZM446.836 227.188c0 .829-.664 1.493-1.494 1.493s-1.494-.664-1.494-1.493c0-.83.664-1.493 1.494-1.493s1.494.663 1.494 1.493Z"/>
  <path stroke="#1D1D1B" stroke-linecap="round" stroke-linejoin="round" stroke-miterlimit="10" stroke-width=".64" d="M465.345 224.782c3.818.166 7.553 1.908 10.126 4.811M452.895 220.386c-2.324-3.65-6.64-5.889-10.956-5.557"/>
  <path fill="#fff" d="M399.858 233.491h13.197l-9.794 22.81s8.798-6.718 8.383-6.055c-.415.664-5.146 16.507-5.146 16.507l5.146-4.562-9.628 32.099-.249-19.16-6.474 4.479 2.49-18.497s-7.719 6.885-7.553 5.972c.249-.746 9.628-33.593 9.628-33.593ZM474.973 273.305h13.197l-9.877 22.81s8.798-6.718 8.383-6.055c-.415.664-5.146 16.506-5.146 16.506l5.146-4.562-9.628 32.1-.249-19.16-6.474 4.479 2.49-18.497s-7.719 6.885-7.553 5.972c.249-.746 9.711-33.593 9.711-33.593Z"/>
  <path fill="#E4D5D5" d="M437.955 171.365c.913 9.456 6.972 17.585 13.363 24.552 16.517 17.833 37.267 31.685 60.009 40.063h57.685c-29.797-7.382-51.46-39.15-60.258-68.513l-70.799 3.898Z"/>
  <path stroke="#E4D5D5" stroke-linecap="round" stroke-linejoin="round" stroke-miterlimit="10" stroke-width="1.562" d="M437.457 171.946c18.011 35.998 37.35 57.315 58.93 65.361M508.173 168.877c22.908 33.178 44.986 51.509 67.479 56.486"/>
  <path fill="#E4D5D5" d="M438.702 183.061c-2.905.331-5.229 2.654-6.806 5.142-3.569 5.558-4.814 12.359-4.565 18.912.249 6.552 1.909 13.022 3.818 19.326 3.735-12.276 13.031-24.386 24.07-31.022-2.407-3.649-4.15-7.796-7.802-10.202-3.652-2.405-4.399-2.654-8.715-2.156Z"/>
  <path stroke="#1D1D1B" stroke-linecap="round" stroke-linejoin="round" stroke-miterlimit="10" stroke-width=".64" d="M485.348 244.108a.744.744 0 0 1-.747.747.744.744 0 0 1-.747-.747c0-.414.332-.746.747-.746.415-.083.747.332.747.746ZM483.107 237.307a.664.664 0 1 0 0-1.327.664.664 0 0 0 0 1.327ZM489.664 239.546a.663.663 0 1 0 .001-1.327.663.663 0 0 0-.001 1.327Z"/>
  <path fill="#1D1D1B" d="M307.894 390.092c1.411.249 3.071.166 3.818-.995.498-.746.498-1.659.249-2.488-.332-.83-.83-1.493-1.411-2.157-3.071-3.484-8.964-8.46-13.944-8.046-7.387.581-.166 8.378 2.49 10.203 2.656 1.742 5.644 2.986 8.798 3.483ZM312.293 367.448c1.411.249 3.071.166 3.818-.995.498-.747.498-1.659.249-2.488-.249-.83-.83-1.493-1.411-2.157-3.071-3.484-8.964-8.46-13.944-8.046-7.387.581-.166 8.378 2.49 10.203a21.326 21.326 0 0 0 8.798 3.483ZM321.755 351.025c1.411.249 3.071.166 3.818-.995.498-.747.498-1.659.249-2.489-.249-.829-.83-1.493-1.411-2.156-3.071-3.484-8.964-8.461-13.944-8.046-7.387.581-.166 8.378 2.49 10.202 2.573 1.825 5.644 2.986 8.798 3.484Z"/>
  <path stroke="#1D1D1B" stroke-linecap="round" stroke-linejoin="round" stroke-miterlimit="10" stroke-width=".64" d="M447.251 171.448c15.189 28.202 43.409 46.616 70.55 63.785"/>
  <path stroke="#1D1D1B" stroke-linecap="round" stroke-linejoin="round" stroke-miterlimit="10" stroke-width=".64" d="M459.286 171.448c15.189 28.202 43.409 46.616 70.55 63.785"/>
  <path fill="#FFC4D8" d="M220.495 251.491c20.418-10.866 28.22-36.248 17.347-56.652l-14.608-27.289c-10.873-20.405-36.271-28.202-56.689-17.336-20.418 10.866-28.22 36.247-17.347 56.652l14.525 27.289c10.956 20.405 36.271 28.201 56.772 17.336Z"/>
  <path fill="#FF6224" d="M152.435 212.921c.332-.498.664-.912.996-1.41a1390.701 1390.701 0 0 0 16.932-25.879c2.656-4.23 5.312-8.461 7.802-12.774 2.324-4.064 4.648-8.128 7.055-12.11 2.988-4.976 6.225-9.87 9.877-14.432-9.296-1.991-19.339-.83-28.469 3.981-20.418 10.866-28.22 36.247-17.347 56.652l3.154 5.972Z"/>
  <path fill="#FFC4D8" d="M155.589 256.384c14.073 0 25.481-11.4 25.481-25.464 0-14.063-11.408-25.464-25.481-25.464-14.073 0-25.481 11.401-25.481 25.464 0 14.064 11.408 25.464 25.481 25.464Z"/>
  <path stroke="#1D1D1B" stroke-linecap="round" stroke-linejoin="round" stroke-miterlimit="10" stroke-width=".751" d="M216.096 249.417c6.391.166 12.865-2.571 17.181-7.299M139.404 237.058c-.581-4.064.747-8.377 3.569-11.446 2.822-3.069 6.972-4.811 11.122-4.562"/>
  <path fill="#FF6224" d="M173.766 177.503c6.806-18.165 15.687-35.5 26.311-51.675 2.988-4.562 6.308-9.207 11.039-12.027 4.731-2.82 11.205-3.318 15.438.166 2.075 1.659 3.403 4.147 4.316 6.636 2.656 7.382 1.992 15.676-.415 23.141-2.407 7.466-6.391 14.35-10.375 21.152-4.648-2.904-9.13-4.065-14.691-3.982-6.972.083-13.778 2.82-19.671 6.719-5.893 3.898-7.221 4.728-11.952 9.87Z"/>
  <path stroke="#1D1D1B" stroke-linecap="round" stroke-linejoin="round" stroke-miterlimit="10" stroke-width=".409" d="M162.561 152.454c-2.988 3.732-3.735 8.792-3.818 13.52-.083 9.456 2.241 18.911 6.64 27.289"/>
  <path fill="#1D1D1B" d="M180.987 195.254c.415 2.737-1.162 5.557-3.403 7.216-2.241 1.659-5.063 2.322-7.802 2.571 4.067 5.723 13.197 7.133 18.758 2.82-.083 4.728-.996 9.705-3.735 13.603-2.739 3.899-7.47 6.636-12.201 6.055 2.573 1.245 4.98 2.655 7.387 4.148-4.648 1.493-9.96.497-13.778-2.572-3.901-3.152-5.893-8.128-7.221-12.939-1.079-3.816-1.909-7.88-1.079-11.778.913-4.48 4.814-12.608 9.877-11.53 0-.166 13.861 7.382 13.197 2.406ZM148.7 260.615c-3.32-.083-6.64-1.908-8.466-4.645.747 3.649 2.656 7.05 5.644 9.289 2.988 2.24 7.055 3.069 10.458 1.659-4.316 3.816-10.956 3.318-16.517 1.825 3.237 4.313 6.806 8.461 11.205 11.613 4.399 3.151 9.628 5.308 15.023 5.225 5.561-.083 10.873-2.571 15.521-5.723 2.241-1.493 4.399-3.235 5.893-5.475 1.328-1.907 2.075-4.064 2.739-6.22.83-2.738 1.577-5.641.913-8.461-.747-3.318-3.403-5.972-6.059-8.046a58.17 58.17 0 0 0-10.375-6.386c.249.083-5.146 5.308-5.727 5.723-2.324 1.659-4.98 2.82-7.719 3.484-2.656.663-3.569.663-5.312 2.82-1.66 2.322-4.15 3.401-7.221 3.318ZM191.528 177.586c4.565.083 9.379-1.41 12.45-4.894 4.15 1.825 8.798 2.655 13.197 1.908 4.482-.663 8.715-2.986 11.454-6.635.747-.996 1.411-2.157 1.66-3.401.498-2.572-.747-5.226-2.656-6.885-1.992-1.659-4.565-2.571-7.055-2.986-5.395-.829-10.873.083-16.019 1.825-5.146 1.742-9.96 4.396-14.691 6.967-2.656 1.493-10.956 5.143-10.458 8.959.498 4.313 9.047 5.059 12.118 5.142ZM204.061 213.253c-.166 1.907.332 4.313 2.241 4.645 1.079.249 2.158-.498 3.071-1.162 4.731-3.815 8.217-9.041 9.96-14.847 3.071 2.654 7.138 3.65 11.122 4.645 1.162.249 2.241.581 3.403.415 1.162-.166 2.324-.83 2.656-1.991.415-1.327-.415-2.654-1.328-3.732a20.74 20.74 0 0 0-9.711-6.138c.166.995-.581 1.99-1.577 2.322-4.233 1.825-9.296-1.493-13.28 1.244-4.316 2.903-6.225 9.871-6.557 14.599Z"/>
  <path stroke="#1D1D1B" stroke-linecap="round" stroke-linejoin="round" stroke-miterlimit="10" stroke-width=".751" d="M229.708 213.419c-2.158 4.479-7.885 6.718-12.533 4.893M225.309 202.802c-2.241 3.483-6.142 5.889-10.292 6.303-4.15.498-8.466-.995-11.454-3.815M228.546 226.69c2.241 4.396 1.328 10.285-2.241 13.769M210.535 198.737c2.573.249 5.063.581 7.636.83.996.083 2.158.166 2.822-.581M199.579 179.826c-4.233 2.405-6.889 7.299-6.557 12.193"/>
  <path stroke="#fff" stroke-miterlimit="10" stroke-width=".391" d="M181.153 169.789c3.154 2.655 7.636 3.567 11.703 2.82 4.067-.746 7.802-2.986 10.707-5.889 3.486 2.903 8.798 3.65 12.948 1.742s7.055-6.304 7.138-10.949"/>
  <path stroke="#fff" stroke-linecap="round" stroke-linejoin="round" stroke-miterlimit="10" stroke-width=".781" d="M92.675 319.257c5.395-2.986 9.628-7.88 11.869-13.603 2.158-5.723 2.324-12.193.249-17.999-1.411-4.065-4.399-2.489-5.976.332-1.992 3.566-1.245 10.036-.415 13.851 1.245 5.558 6.142 11.115 12.45 10.369 7.968-.913 11.62-10.203 14.027-16.672M88.94 281.268c5.395-2.986 9.628-7.88 11.869-13.603 2.158-5.723 2.324-12.193.249-17.999-1.411-4.065-4.399-2.489-5.976.332-1.992 3.566-1.245 10.036-.415 13.851 1.245 5.558 6.142 11.115 12.45 10.369 7.968-.913 11.62-10.203 14.027-16.672M108.777 351.191c5.395-2.986 9.628-7.88 11.869-13.603 2.158-5.723 2.324-12.193.249-17.999-1.411-4.065-4.399-2.489-5.976.332-1.992 3.566-1.245 10.036-.415 13.851 1.245 5.558 6.142 11.115 12.45 10.369 7.968-.913 11.62-10.203 14.027-16.672"/>
  <path stroke="#1D1D1B" stroke-linecap="round" stroke-linejoin="round" stroke-miterlimit="10" stroke-width=".409" d="M186.382 167.135c3.735-9.953 7.968-19.741 12.699-29.197 2.822-5.64 5.81-11.197 10.126-15.842 4.316-4.562 10.043-8.129 16.268-8.544"/>
  <path fill="#AE4B20" d="M4.363 486.226c16.517-38.404 49.634-66.688 81.589-93.562 18.343 15.759 37.848 31.353 56.191 47.03-7.304 15.593-14.774 33.759-23.24 48.772l-114.54-2.24Z"/>
  <path fill="#FFC4D8" d="M135.669 436.044c-.249-.58 15.604-31.685 11.786-48.357-1.577-6.967-4.565-13.769-4.731-20.902 0-1.576.083-3.152.747-4.562 1.162-2.24 3.569-3.401 5.478-5.06 5.561-4.811 5.644-15.345.332-20.487 3.735-2.157 6.059-6.387 5.893-10.7-.166-4.314-3.569-9.622-7.47-11.447 3.403-2.903 3.901-8.543 1.245-12.027-2.739-3.484-9.047-5.143-12.699-2.571 1.411-2.903 2.49-6.138 2.324-9.373-.166-3.235-1.992-6.553-4.98-7.797-4.482-1.825-9.296 1.41-12.782 4.728-27.307 25.63-38.512 67.103-27.722 102.935l42.579 45.62Z"/>
  <path stroke="#1D1D1B" stroke-linecap="round" stroke-linejoin="round" stroke-miterlimit="10" stroke-width=".765" d="M150.36 337.339c-7.304 2.82-13.446 8.626-16.683 15.76-2.656 5.806-3.32 12.359-5.893 18.331M146.21 315.11c-7.553 2.239-14.027 7.548-17.845 14.432-3.071 5.64-4.316 12.11-7.304 17.75M137.412 301.009c-7.553 2.239-14.027 7.548-17.845 14.432-3.071 5.641-4.316 12.11-7.304 17.751"/>
  <path fill="#1D1D1B" d="M128.78 283.756c-2.241-.166-4.067 1.576-5.644 3.152-1.328 1.327-2.656 2.737-3.32 4.479-.664 1.742-.581 3.899.747 5.226 1.162 1.161 2.988 1.41 4.565.995 1.577-.415 2.905-1.41 4.15-2.405 1.826-1.493 3.652-3.235 4.233-5.558.498-2.322-.747-5.142-3.154-5.474M139.57 300.428c-2.241-.166-4.067 1.576-5.644 3.152-1.328 1.327-2.656 2.737-3.32 4.479-.664 1.742-.581 3.899.747 5.226 1.162 1.161 2.988 1.41 4.565.995 1.577-.414 2.905-1.41 4.15-2.405 1.826-1.493 3.652-3.235 4.233-5.558.498-2.322-.747-5.142-3.154-5.474M144.467 314.031c-2.241-.165-4.067 1.576-5.644 3.152-1.328 1.327-2.656 2.738-3.32 4.479-.664 1.742-.581 3.899.747 5.226 1.162 1.161 2.988 1.41 4.565.995 1.577-.414 2.905-1.41 4.15-2.405 1.826-1.493 3.652-3.235 4.233-5.557.498-2.323-.747-5.143-3.154-5.475M145.38 340.491c-1.743-.083-3.154 1.161-4.316 2.405-.996.996-2.075 2.074-2.573 3.401-.581 1.327-.498 2.986.581 4.065.913.912 2.324 1.078 3.486.746 1.245-.332 2.241-1.078 3.237-1.825 1.411-1.161 2.822-2.488 3.237-4.313.415-1.742-.581-3.981-2.407-4.23"/>
  <path fill="#9797FD" d="M314.036 187.954c-18.758-9.953-25.896-33.261-15.853-52.006l13.363-25.05c9.96-18.746 33.283-25.879 52.041-15.843 18.758 9.954 25.896 33.262 15.853 52.007l-13.363 25.05c-10.043 18.663-33.366 25.796-52.041 15.842Z"/>
  <path fill="#1D1D1B" d="M379.025 134.372c-5.727 3.566-8.3 9.704-7.968 16.257.166 2.986.83 5.889 1.66 8.792l6.64-12.442a38.093 38.093 0 0 0 4.399-15.013c-1.66.747-3.237 1.493-4.731 2.406ZM322.585 113.221c4.731-2.323 9.13-5.973 11.62-10.617.415-.747 1.826-.498 1.743.497-.747 6.553.581 12.94 4.648 18.248 5.727 7.631 15.023 11.032 24.319 11.53 6.308.331 13.695-.664 19.007-4.397a38.218 38.218 0 0 0-20.418-33.344c-18.758-9.953-41.998-2.903-52.041 15.843l-1.909 3.567c4.233 1.493 8.964.58 13.031-1.327Z"/>
  <path fill="#FF6224" d="M336.114 104.843c13.612 7.216 28.552 11.861 43.575 15.345l3.237.746c-2.324-10.7-9.13-20.321-19.505-25.879-9.296-4.976-19.671-5.723-29.05-2.903-3.735 1.079-7.304 2.82-10.624 5.06a112.705 112.705 0 0 0 12.367 7.631Z"/>
  <path fill="#9797FD" d="M308.392 137.855c-7.553 10.286-20.916 13.272-29.88 6.719-8.964-6.553-10.126-20.239-2.573-30.441 7.553-10.285 20.916-13.271 29.88-6.719 8.964 6.47 10.126 20.156 2.573 30.441ZM395.708 182.231c-7.553 10.285-20.916 13.271-29.88 6.719-8.964-6.553-10.126-20.239-2.573-30.441 7.553-10.285 20.916-13.272 29.88-6.719 8.881 6.553 10.043 20.239 2.573 30.441Z"/>
  <path stroke="#1D1D1B" stroke-linecap="round" stroke-linejoin="round" stroke-miterlimit="10" stroke-width=".654" d="M281.251 121.764c3.486-4.064 9.711-5.557 14.691-3.484-5.727 3.235-9.13 10.037-8.217 16.506M371.97 175.844c2.075-1.576 4.233-3.152 5.81-5.225 1.577-2.074 2.573-4.728 2.075-7.299 2.49-.415 5.063.995 6.557 2.986 1.494 1.99 2.241 4.562 2.656 7.05M346.489 129.478c-1.66 7.216-5.478 14.018-10.873 19.077-.166-2.737-.996-6.552-1.162-9.29"/>
  <path fill="#1D1D1B" d="M316.028 191.438c-8.383-3.815-14.608-11.032-19.505-18.58-5.81-9.041-7.885-19.326-4.98-29.86 2.075-7.631 6.723-14.598 12.948-19.492 3.901 4.147 6.059 9.704 7.055 15.262.996 5.64.913 11.363.747 17.004.415-2.821 1.328-5.558 3.071-7.88 1.66-2.323 4.15-4.065 6.972-4.479 2.158-.332 4.316.083 6.308.829 9.213 3.401 15.106 12.359 18.509 21.151 2.407-3.898 6.806-6.304 11.371-6.718 4.565-.415 9.13.995 13.031 3.4-2.158 5.392-4.316 10.7-7.055 15.843-3.071 5.806-7.055 11.446-12.865 14.432-5.146 2.655-11.205 2.904-16.932 2.655-5.893-.166-11.869-.83-17.347-3.069-.498-.083-.913-.332-1.328-.498Z"/>
  <path stroke="#1D1D1B" stroke-linecap="round" stroke-linejoin="round" stroke-miterlimit="10" stroke-width=".654" d="M320.261 117.534c2.49-.415 5.063-.83 7.553-.581s5.063 1.161 6.806 2.986M357.528 132.049c4.648 2.074 7.968 6.802 8.3 11.861"/>
  <path stroke="#1D1D1B" stroke-linecap="round" stroke-linejoin="round" stroke-miterlimit="10" stroke-width=".765" d="M289.302 281.434c4.233 11.861 10.79 22.893 19.256 32.266 10.624 11.778 25.398 21.151 41.251 20.404"/>
  <path stroke="#fff" stroke-linecap="round" stroke-linejoin="round" stroke-miterlimit="10" stroke-width=".781" d="M334.371 141.339c-3.237.912-5.312 4.811-4.316 7.963 1.079 3.235 5.146 5.059 8.217 3.566 2.988-1.493 4.067-5.972 1.909-8.543"/>
  <path fill="#1D1D1B" d="M328.644 131.8c0 1.079-.83 1.908-1.909 1.908a1.877 1.877 0 0 1-1.909-1.908c0-1.078.83-1.907 1.909-1.907 1.079 0 1.909.912 1.909 1.907ZM350.224 143.91c0 1.079-.83 1.908-1.909 1.908a1.877 1.877 0 0 1-1.909-1.908c0-1.078.83-1.907 1.909-1.907 1.079 0 1.909.912 1.909 1.907Z"/>
  <path stroke="#1D1D1B" stroke-linecap="round" stroke-linejoin="round" stroke-miterlimit="10" stroke-width=".654" d="M344.414 109.82c3.237-6.802 6.059-13.852 12.284-18.082-2.905-.747-5.893.331-8.632 1.576-5.146 2.322-10.126 5.557-13.28 10.285M365.413 117.617c1.079-2.903 1.494-5.972 1.577-9.041.083-5.143-.83-10.7-4.565-14.267 7.221 6.967 10.956 17.419 9.794 27.455"/>
  <path fill="#fff" d="M341.343 155.937c-.913 5.309-5.478 8.793-9.462 8.71-3.403-.083-6.557-2.406-8.217-5.475-1.66-2.986-1.992-6.552-1.743-10.036 2.739 5.723 9.462 9.207 15.77 8.792.747 0 3.071-1.41 3.652-1.991Z"/>
  <path stroke="#fff" stroke-miterlimit="10" stroke-width=".391" d="M302.582 180.738c-.913-1.244-1.743-2.405-2.656-3.649 3.818 6.469 9.711 11.695 16.517 14.764 6.806 3.069 14.691 3.981 21.995 2.571"/>
  <path stroke="#9797FD" stroke-linecap="round" stroke-linejoin="round" stroke-miterlimit="10" stroke-width=".781" d="M288.223 210.267a43.842 43.842 0 0 0 13.031 14.017c2.49 1.742 5.229 3.235 8.134 4.314 11.039 4.147 24.319 1.741 33.2-6.055"/>
  <path stroke="#9797FD" stroke-linecap="round" stroke-linejoin="round" stroke-miterlimit="10" stroke-width=".781" d="M305.072 184.388c-1.162-.83-2.656.083-3.569 1.161-1.909 2.405-2.573 5.474-3.071 8.543a2425.423 2425.423 0 0 0-4.399 23.972M310.633 189.364c-1.162-.829-2.656.083-3.569 1.162-1.909 2.405-2.573 5.474-3.071 8.543a2425.23 2425.23 0 0 0-4.399 23.971M314.202 228.764c1.245 10.617 3.486 21.316 9.047 30.44 5.561 9.124 15.023 16.341 25.73 16.921 1.162.083 2.407 0 3.237-.829.83-.747.996-2.074.996-3.152.083-7.382-2.988-14.764-8.3-19.907-.415-.415-.913-.829-1.494-.912-1.577-.166-2.241 1.907-2.241 3.483-.083 17.917 10.707 35.003 25.896 44.459 15.189 9.456 34.279 11.778 51.875 8.212 2.573-.498 5.146-1.162 7.055-2.986M237.842 234.819c9.462 2.654 20.086.58 27.888-5.392 7.802-5.972 12.533-15.594 12.782-25.464"/>
  <path stroke="#1D1D1B" stroke-linecap="round" stroke-linejoin="round" stroke-miterlimit="10" stroke-width=".765" d="M236.929 425.095c1.577.581 3.486.913 4.814 0 1.411-.995 1.66-2.986 1.162-4.562-.581-1.576-1.743-2.903-2.905-4.064-2.49-2.571-10.956-8.046-14.027-2.737-2.739 4.645 7.802 10.202 10.956 11.363ZM232.281 377.982c1.577.581 3.486.913 4.814 0 1.411-.995 1.66-2.986 1.162-4.562-.581-1.576-1.743-2.903-2.905-4.064-2.49-2.571-10.956-8.046-14.027-2.737-2.656 4.562 7.802 10.202 10.956 11.363ZM213.274 430.736c1.577.58 3.486.912 4.814 0 1.411-.996 1.66-2.986 1.162-4.562-.581-1.576-1.743-2.903-2.905-4.065-2.49-2.571-10.956-8.045-14.027-2.737-2.656 4.562 7.885 10.202 10.956 11.364ZM194.101 433.058c1.577.581 3.486.912 4.814 0 1.411-.995 1.66-2.986 1.162-4.562-.581-1.576-1.743-2.903-2.905-4.064-2.49-2.572-10.956-8.046-14.027-2.737-2.739 4.562 7.802 10.202 10.956 11.363ZM174.43 433.058c1.577.581 3.486.912 4.814 0 1.411-.995 1.66-2.986 1.162-4.562-.581-1.576-1.743-2.903-2.905-4.064-2.49-2.572-10.956-8.046-14.027-2.737-2.656 4.562 7.885 10.202 10.956 11.363Z"/>
  <path fill="#FF6224" d="M294.033 15.345c-7.636-16.257-25.066-20.322-38.678-8.71-4.814 4.148-7.304 7.963-10.375 13.604-1.577 2.82-5.312 13.271-4.316 10.202.415-1.327-1.328 4.064-1.66 5.557-.332 1.328-.996 3.401-1.162 3.567 0 0-1.162-1.161-1.66-1.493-5.063-3.816-11.205-6.802-17.596-6.387-5.146.332-9.794 2.903-13.28 6.719-3.735 4.147-6.059 9.455-7.304 14.93-7.138 33.51 35.939 53.085 58.847 67.766 1.328-22.478 23.655-32.431 33.698-52.504 7.885-15.843 11.205-36.745 3.486-53.251Z"/>
  <path stroke="#1D1D1B" stroke-linecap="round" stroke-linejoin="round" stroke-miterlimit="10" stroke-width=".765" d="M244.399 21.566c-7.802 14.93-9.711 32.763-5.312 49.02"/>
  <path stroke="#fff" stroke-linecap="round" stroke-linejoin="round" stroke-miterlimit="10" stroke-width="2.343" d="M202.982 53.002c-.747 4.064-.332 8.378 1.328 12.193M209.373 40.975c-1.992 1.825-3.569 4.147-4.731 6.636M249.96 24.884c-.664 2.156-1.079 4.396-1.079 6.718M257.015 13.769a23.748 23.748 0 0 0-4.316 5.225"/>
  <path fill="#FFC4D8" stroke="#FFC4D8" stroke-linecap="round" stroke-linejoin="round" stroke-miterlimit="10" stroke-width="1.657" d="M328.395 9.953c-2.324 13.189-13.944 26.709-28.552 31.105-7.387 2.157-14.857 1.99-22.078 1.825 10.707-1.161 19.92 5.723 21.663 14.764 1.494 7.88-2.407 16.59-6.723 24.552 6.225-9.207 12.948-17.75 22.161-24.718 9.213-6.967 21.165-11.53 31.623-10.036-4.482.414-8.715-1.244-11.454-3.899-8.466-8.128-10.043-21.317-6.64-33.593Z"/>
  <path stroke="#1D1D1B" stroke-linecap="round" stroke-linejoin="round" stroke-miterlimit="10" stroke-width=".448" d="M98.07 181.485a5.393 5.393 0 0 0 5.395-5.392 5.393 5.393 0 0 0-5.395-5.391 5.393 5.393 0 0 0-5.395 5.391 5.393 5.393 0 0 0 5.395 5.392ZM103.631 132.962a1.742 1.742 0 1 0 .001-3.485 1.742 1.742 0 0 0-.001 3.485ZM428.078 134.786a2.975 2.975 0 0 1-2.988 2.986 2.975 2.975 0 0 1-2.988-2.986 2.975 2.975 0 0 1 2.988-2.986 2.975 2.975 0 0 1 2.988 2.986ZM532.658 266.587c0 .829-.664 1.41-1.411 1.41-.83 0-1.411-.664-1.411-1.41 0-.747.664-1.41 1.411-1.41s1.411.58 1.411 1.41ZM561.376 246.68c0 .995-.83 1.825-1.826 1.825-.996 0-1.826-.83-1.826-1.825 0-.996.83-1.825 1.826-1.825.996 0 1.826.829 1.826 1.825ZM177.833 124.916c0 .829-.664 1.493-1.494 1.493s-1.494-.664-1.494-1.493c0-.83.664-1.493 1.494-1.493s1.494.663 1.494 1.493ZM67.194 264.43a2.143 2.143 0 0 1-2.158 2.157 2.143 2.143 0 0 1-2.158-2.157c0-1.161.996-2.157 2.158-2.157 1.162-.082 2.158.913 2.158 2.157ZM591.505 308.557c0 1.327-1.079 2.488-2.49 2.488-1.328 0-2.49-1.078-2.49-2.488 0-1.327 1.079-2.488 2.49-2.488 1.411.083 2.49 1.161 2.49 2.488Z"/>
  <path stroke="#1D1D1B" stroke-linecap="round" stroke-linejoin="round" stroke-miterlimit="10" stroke-width=".479" d="M17.145 141.754c0 2.239-1.826 3.981-3.984 3.981s-3.984-1.825-3.984-3.981c0-2.24 1.826-3.982 3.984-3.982s3.984 1.825 3.984 3.982Z"/>
  <path stroke="#1D1D1B" stroke-linecap="round" stroke-linejoin="round" stroke-miterlimit="10" stroke-width=".448" d="M63.874 113.884a1.079 1.079 0 1 0 0-2.157 1.079 1.079 0 0 0 0 2.157ZM468.914 81.452c0 .996-.83 1.908-1.909 1.908-.996 0-1.909-.83-1.909-1.908 0-.995.83-1.907 1.909-1.907 1.079 0 1.909.83 1.909 1.907ZM489.913 118.446a.912.912 0 1 0 .001-1.825.912.912 0 0 0-.001 1.825ZM413.636 88.669a.357.357 0 0 1-.332.331.357.357 0 0 1-.332-.331c0-.166.166-.332.332-.332.166.083.332.166.332.332ZM581.379 144.823c0 1.41-1.162 2.488-2.49 2.488-1.411 0-2.49-1.161-2.49-2.488 0-1.41 1.162-2.489 2.49-2.489 1.328 0 2.49 1.079 2.49 2.489Z"/>
  <path stroke="#fff" stroke-linecap="round" stroke-linejoin="round" stroke-miterlimit="10" stroke-width="2.343" d="M73.253 196v21.566M73.253 231.335v21.566M45.614 222.957h21.58M78.15 223.87h21.58"/>
  <path stroke="#1D1D1B" stroke-linecap="round" stroke-linejoin="round" stroke-miterlimit="10" stroke-width=".765" d="M455.053 101.691v21.566M455.053 137.026v21.566M427.414 128.648h21.58M459.95 129.561h21.58"/>
  <path fill="#1D1D1B" d="M82.217 160.831a3.734 3.734 0 1 0 0-7.465 3.734 3.734 0 1 0 0 7.465ZM109.524 105.755a2.23 2.23 0 0 1-2.241 2.24 2.23 2.23 0 0 1-2.241-2.24 2.23 2.23 0 0 1 2.241-2.239 2.23 2.23 0 0 1 2.241 2.239ZM150.526 134.786a1.493 1.493 0 1 0 .001-2.987 1.493 1.493 0 0 0-.001 2.987ZM426.833 62.79a2.32 2.32 0 0 1-2.324 2.322 2.32 2.32 0 0 1-2.324-2.322c0-1.245 1.079-2.323 2.324-2.323 1.245 0 2.324 1.078 2.324 2.323ZM387.989 77.056c0 1.41-1.079 2.489-2.49 2.489-1.411 0-2.49-1.079-2.49-2.489s1.079-2.488 2.49-2.488c1.328 0 2.49 1.161 2.49 2.488ZM545.606 159.255c0 .996-.83 1.825-1.826 1.825a1.841 1.841 0 0 1-1.826-1.825c0-.995.83-1.825 1.826-1.825.996 0 1.826.83 1.826 1.825ZM548.428 106.253c1.604 0 2.905-1.3 2.905-2.903a2.904 2.904 0 0 0-5.81 0 2.904 2.904 0 0 0 2.905 2.903ZM582.624 209.437c0 1.908-1.577 3.484-3.486 3.484-1.909 0-3.486-1.576-3.486-3.484s1.577-3.483 3.486-3.483c1.909 0 3.486 1.575 3.486 3.483ZM558.969 270.402a3.807 3.807 0 0 1-3.818 3.816 3.807 3.807 0 0 1-3.818-3.816 3.807 3.807 0 0 1 3.818-3.815 3.806 3.806 0 0 1 3.818 3.815Z"/>
  <path stroke="#1D1D1B" stroke-linecap="round" stroke-linejoin="round" stroke-miterlimit="10" stroke-width=".751" d="M202.152 191.023c1.245 1.991 4.316 2.489 6.142.996 1.826-1.41 2.075-4.479.415-6.221M213.191 184.637c1.245 1.99 4.316 2.488 6.142.995 1.826-1.41 2.075-4.479.415-6.221"/>
</svg>
