<svg
  class="logo"
  xmlns="http://www.w3.org/2000/svg"
  xml:space="preserve"
  viewBox="0 0 800 372"
>
  <path
    d="M23.5 145.2C7.8 131.2 0 111.1 0 85c0-26.2 7.8-46.9 23.5-62.2C39.2 7.6 63.6 0 96.7 0 143 0 174 15.9 189.6 47.7 176.4 52.2 161 59 143.2 68.1c-4.3-8.2-11-14.3-20.1-18.2-9.2-4-18.5-5.9-28-5.9-14.1 0-24.5 3.7-31.4 11.1-6.9 7.4-10.3 16.5-10.3 27.4 0 11.7 3.7 21.3 11.1 28.7 7.4 7.4 18.7 11.1 33.9 11.1 12.2 0 21.8-2 29-6 7.2-4 12.4-10.4 15.8-19.2 12 6.4 27.4 13.7 46.1 21.8-7.3 17.7-19.6 30.1-36.7 37.1s-35.8 10.5-56 10.5c-33-.2-57.4-7.2-73.1-21.3zM258.1 119.7c42.5-.3 77.6-1 105.5-2.2-1.9 7.5-3.1 14.6-3.5 21.5-.4 6.9-.7 15.2-.7 25H204.5c1.2-28.4 1.8-55 1.8-79.7 0-24.8-.6-51.3-1.8-79.8h53.6v115.2zM517.6 48.3c-17.4-.9-30.3-1.4-38.7-1.5v75.1c8.5-.1 21.4-.7 38.7-1.5v43.7H390v-43.7c16.8.9 29.7 1.4 38.4 1.5V46.8c-8.8.1-21.6.7-38.4 1.5V4.6h127.6v43.7zM12.4 329.4c3.3-6.4 6.5-13.9 9.6-22.4 10.4 6 22.5 10.7 36.2 14.1 13.8 3.4 26.6 5.1 38.4 5.1 12.2 0 20.7-1.1 25.7-3.2s7.5-4.4 7.5-6.9c0-8.9-13.6-13.4-40.9-13.4-29.9 0-51.6-3.1-65-9.3C10.5 287 3.7 277 3.7 263c0-19.8 8.2-34.3 24.6-43.7 16.4-9.4 37.7-14.1 63.9-14.1 15.2 0 30.9 1.9 46.9 5.8s30.5 9.2 43.4 15.9c-4.3 9.7-8.7 21.5-13.4 35.4-.9 2.9-1.6 5.1-2.2 6.6-7.5-6-18.8-11-33.8-15-15.1-4-28.4-6-40-6-13.9 0-23.3.9-28.1 2.7-4.8 1.8-7.3 4.5-7.3 8s3.3 6.3 10 8.5c6.7 2.1 16.3 3.2 28.9 3.2 31 0 53.6 3.6 67.7 10.7 14.1 7.1 21.1 18 21.1 32.6 0 20.5-7.5 35.3-22.4 44.3-14.9 9-37.6 13.5-67.9 13.5-16.3 0-32.8-1.8-49.7-5.4-16.8-3.6-32-8.8-45.5-15.7 5.1-7.5 9.2-14.5 12.5-20.9zM387.1 209.7c-1 24.8-1.5 51.3-1.5 79.8 0 28.4.5 55 1.5 79.7h-51.6v-59.8h-80.8v59.8h-51.6c1.2-28.4 1.8-55 1.8-79.7 0-24.8-.6-51.3-1.8-79.8h51.6v59.8h80.8v-59.8h51.6zM427.8 349.5c-15.8-14.6-23.7-35-23.7-61.4 0-26.1 7.9-46.4 23.6-61.1 15.7-14.6 40.5-22 74.1-22 33.8 0 58.6 7.3 74.4 22 15.7 14.6 23.6 35 23.6 61.1 0 26.5-7.8 47-23.5 61.5s-40.5 21.8-74.5 21.8c-33.5 0-58.2-7.3-74-21.9zM537 317.2c7.2-6.2 10.8-15.9 10.8-29.1 0-12.9-3.6-22.5-10.8-28.8-7.2-6.3-18.9-9.4-35.2-9.4-16.1 0-27.8 3.2-34.9 9.4-7.2 6.3-10.8 15.9-10.8 28.8 0 13 3.6 22.7 10.8 29 7.2 6.3 18.8 9.4 34.9 9.4 16.3 0 28-3.1 35.2-9.3zM800 255.8c-23-.7-45.3-1.2-67-1.3v114.7h-54.9V254.5c-21.8.1-44.1.6-66.8 1.3v-46.1H800v46.1zM624.1 166.1c-3 .1-5.7.1-8 .2 2.7 0 5.4-.1 8-.2zM615.4 166.3h.7-.7z"
  />
  <path
    d="M776.3 114.7c-22.7.3-40.8.4-54.5.4 3.2-9.5 4.8-20.2 4.8-32.1 0-26.1-7.9-46.4-23.6-61.1C687.2 7.3 662.4 0 628.6 0c-33.7 0-58.4 7.3-74.1 22-15.7 14.6-23.6 35-23.6 61.1 0 26.4 7.9 46.8 23.7 61.4 15.8 14.6 40.5 21.9 74 21.9h.7c2.3-.1 5-.1 8-.2 9.6-.2 22.5-.2 38.8-.2 18.2 0 31.6.1 40.4.2 7-.1 17.9-.2 32.5-.2 13.2 0 30.2.1 51 .4v-51.8l-23.7.1zm-147.7 6.8c-16.2 0-27.8-3.1-35-9.4-7.2-6.3-10.8-16-10.8-29 0-12.9 3.6-22.5 10.8-28.8 7.2-6.3 18.8-9.4 34.9-9.4 16.3 0 28 3.2 35.2 9.4 7.2 6.3 10.8 15.9 10.8 28.8 0 13.2-3.6 22.9-10.8 29.1-1.1.9-2.3 1.8-3.6 2.6-7.2 4.4-17.7 6.7-31.5 6.7z"
  />
</svg>