<svg xmlns="http://www.w3.org/2000/svg" fill="none" viewBox="0 0 108 66">
  <path fill="#FF6224" d="M7.254 54.972c1.965 0 3.343.351 4.105 1.053.762.702 1.164 1.7 1.164 2.969 0 .877-.147 1.619-.455 2.24-.308.62-.843 1.093-1.618 1.444-.776.337-1.832.512-3.196.512h-3.09v2.632H.514c.08-1.944.12-3.752.12-5.439 0-1.686-.04-3.495-.12-5.438h3.65v.014h3.09v.013Zm-1.044 5.33c.816 0 1.431-.026 1.846-.094.415-.067.695-.189.856-.35.16-.176.24-.42.24-.743 0-.324-.08-.58-.227-.742-.147-.162-.441-.283-.842-.337a15.246 15.246 0 0 0-1.873-.095H4.164v2.361H6.21ZM26.137 54.959a136.945 136.945 0 0 0 0 10.876h-3.49V61.76H17.19v4.075H13.7c.08-1.943.12-3.751.12-5.438 0-1.687-.04-3.495-.12-5.438h3.49v4.075h5.456v-4.075h3.49ZM28.932 64.5c-1.07-1-1.605-2.39-1.605-4.184 0-1.781.535-3.158 1.591-4.156 1.057-.999 2.729-1.498 5.015-1.498 2.287 0 3.959.5 5.029 1.498 1.07.998 1.591 2.388 1.591 4.156 0 1.808-.535 3.198-1.591 4.197-1.057.985-2.742 1.484-5.029 1.484-2.273-.013-3.931-.513-5.001-1.498Zm7.368-2.214c.482-.418.723-1.08.723-1.984 0-.877-.241-1.538-.723-1.956-.481-.418-1.27-.648-2.367-.648-1.083 0-1.872.216-2.353.648-.482.432-.723 1.08-.723 1.956 0 .891.241 1.552.723 1.97.481.432 1.27.648 2.353.648 1.097.014 1.886-.202 2.367-.634ZM53.74 58.103c-1.552-.054-3.063-.081-4.521-.095v7.813h-3.704v-7.8c-1.471.014-2.983.041-4.507.095v-3.144h12.731v3.13ZM55.638 64.5c-1.07-1-1.605-2.39-1.605-4.184 0-1.781.535-3.158 1.592-4.156 1.056-.999 2.728-1.498 5.015-1.498 2.287 0 3.958.5 5.028 1.498 1.07.998 1.592 2.388 1.592 4.156 0 1.808-.535 3.198-1.592 4.197-1.056.985-2.741 1.484-5.028 1.484-2.26-.013-3.932-.513-5.002-1.498Zm7.369-2.214c.481-.418.722-1.08.722-1.984 0-.877-.24-1.538-.722-1.956-.481-.418-1.27-.648-2.367-.648-1.083 0-1.872.216-2.354.648-.481.432-.722 1.08-.722 1.956 0 .891.24 1.552.722 1.97.482.432 1.27.648 2.354.648 1.096.014 1.886-.202 2.367-.634ZM80.526 62.596c0 .675-.147 1.256-.455 1.728-.307.472-.856.85-1.645 1.106-.789.27-1.885.392-3.29.392H68.45c.08-1.944.12-3.752.12-5.439 0-1.686-.04-3.495-.12-5.438h3.477v.014h3.156c1.23 0 2.193.108 2.902.31.709.203 1.204.5 1.498.89.294.392.441.878.441 1.485 0 .607-.214 1.147-.628 1.62-.415.472-1.137.85-2.154 1.146 2.247.014 3.384.743 3.384 2.187Zm-8.6-4.898v1.39h2.85c.615 0 1.043-.054 1.283-.162.241-.108.361-.31.361-.594 0-.23-.12-.391-.374-.485-.254-.095-.682-.149-1.27-.149h-2.85Zm2.85 5.398c.508 0 .909-.027 1.176-.068.268-.04.468-.121.589-.243.12-.107.174-.27.174-.472 0-.256-.148-.445-.428-.567-.281-.108-.79-.175-1.525-.175h-2.835v1.511h2.848v.014ZM83.308 64.5c-1.07-1-1.605-2.39-1.605-4.184 0-1.781.535-3.158 1.591-4.156 1.057-.999 2.728-1.498 5.015-1.498 2.287 0 3.959.5 5.029 1.498 1.07.998 1.591 2.388 1.591 4.156 0 1.808-.535 3.198-1.591 4.197-1.057.985-2.742 1.484-5.029 1.484-2.26-.013-3.931-.513-5.001-1.498Zm7.382-2.214c.481-.418.722-1.08.722-1.984 0-.877-.24-1.538-.722-1.956-.482-.418-1.27-.648-2.367-.648-1.084 0-1.873.216-2.354.648-.481.432-.722 1.08-.722 1.956 0 .891.24 1.552.722 1.97.481.432 1.27.648 2.354.648 1.083.014 1.885-.202 2.367-.634Z"/>
  <path fill="#FF6224" d="m103.167 60.262 4.333 5.573h-4.293l-2.14-2.942-2.153 2.942h-4.293l4.333-5.573-4.185-5.303h4.306l2.006 2.699 1.992-2.7h4.293l-4.199 5.304Z"/>
  <path fill="#000" d="M3.656 19.59c-2.1-1.889-3.143-4.6-3.143-8.123 0-3.535 1.043-6.329 3.143-8.393 2.1-2.051 5.363-3.077 9.79-3.077 6.191 0 10.337 2.146 12.423 6.437-1.765.607-3.825 1.525-6.205 2.753-.575-1.107-1.471-1.93-2.688-2.456a9.207 9.207 0 0 0-3.745-.796c-1.885 0-3.276.499-4.199 1.497-.923.999-1.377 2.227-1.377 3.698 0 1.579.495 2.874 1.484 3.873.99.998 2.501 1.497 4.534 1.497 1.631 0 2.915-.27 3.878-.81.963-.539 1.658-1.403 2.113-2.59 1.605.864 3.664 1.849 6.165 2.942-.976 2.388-2.621 4.061-4.908 5.006-2.287.945-4.788 1.417-7.489 1.417-4.413-.027-7.676-.972-9.776-2.874ZM35.03 16.15c5.684-.04 10.378-.135 14.109-.297a15.57 15.57 0 0 0-.468 2.9 58.584 58.584 0 0 0-.094 3.375H27.862c.16-3.833.24-7.422.24-10.755 0-3.347-.08-6.923-.24-10.769h7.168V16.15ZM69.734 6.515c-2.327-.122-4.052-.189-5.176-.203v10.135c1.137-.014 2.862-.095 5.176-.203v5.897H52.669v-5.897c2.247.122 3.972.19 5.136.203V6.312c-1.177.014-2.889.095-5.136.203V.618h17.065v5.897ZM2.172 44.447c.441-.864.869-1.876 1.284-3.023 1.39.81 3.009 1.444 4.84 1.903 1.846.459 3.558.688 5.136.688 1.632 0 2.768-.148 3.437-.432.669-.283 1.003-.594 1.003-.93 0-1.202-1.819-1.81-5.47-1.81-3.998 0-6.9-.418-8.692-1.254-1.792-.864-2.702-2.213-2.702-4.102 0-2.672 1.097-4.629 3.29-5.897 2.193-1.269 5.042-1.903 8.546-1.903 2.032 0 4.132.256 6.272.783 2.14.526 4.079 1.241 5.804 2.145-.575 1.31-1.164 2.902-1.792 4.777-.12.391-.214.688-.294.89-1.003-.809-2.515-1.484-4.52-2.023-2.02-.54-3.799-.81-5.35-.81-1.859 0-3.116.122-3.758.364-.642.243-.976.608-.976 1.08 0 .472.441.85 1.337 1.147.896.283 2.18.432 3.865.432 4.146 0 7.168.486 9.054 1.444 1.885.958 2.822 2.428 2.822 4.399 0 2.766-1.003 4.763-2.996 5.978-1.993 1.214-5.029 1.821-9.08 1.821-2.18 0-4.387-.243-6.647-.728C4.338 48.9 2.305 48.198.5 47.267a27.21 27.21 0 0 0 1.672-2.82ZM52.282 28.294c-.134 3.347-.201 6.923-.201 10.769 0 3.832.067 7.422.2 10.755h-6.9v-8.07H34.575v8.07h-6.9c.16-3.833.24-7.422.24-10.755 0-3.347-.08-6.923-.24-10.769h6.9v8.07h10.806v-8.07h6.9ZM57.724 47.16c-2.112-1.97-3.169-4.724-3.169-8.286 0-3.522 1.056-6.262 3.156-8.245 2.1-1.97 5.416-2.969 9.91-2.969 4.52 0 7.837.985 9.95 2.969 2.1 1.97 3.156 4.723 3.156 8.245 0 3.576-1.044 6.342-3.143 8.299-2.1 1.956-5.416 2.941-9.963 2.941-4.48 0-7.783-.985-9.896-2.955Zm14.604-4.36c.963-.836 1.444-2.145 1.444-3.926 0-1.74-.481-3.036-1.444-3.887-.963-.85-2.527-1.268-4.707-1.268-2.153 0-3.718.432-4.668 1.268-.962.85-1.444 2.146-1.444 3.887 0 1.754.482 3.063 1.444 3.913.963.85 2.515 1.269 4.668 1.269 2.18 0 3.744-.419 4.707-1.255ZM107.5 34.515a345.462 345.462 0 0 0-8.96-.175v15.478h-7.342V34.34c-2.915.013-5.898.08-8.933.175v-6.22H107.5v6.22ZM83.976 22.41c-.4.014-.762.014-1.07.028a27.6 27.6 0 0 0 1.07-.027Z"/>
  <path fill="#000" d="M104.331 15.475c-3.036.04-5.457.054-7.289.054.428-1.282.642-2.726.642-4.332 0-3.522-1.056-6.261-3.156-8.245-2.113-1.97-5.43-2.955-9.95-2.955-4.507 0-7.81.985-9.91 2.969-2.1 1.97-3.156 4.723-3.156 8.245 0 3.562 1.057 6.315 3.17 8.285 2.113 1.97 5.416 2.955 9.896 2.955h.094c.307-.013.668-.013 1.07-.027 1.283-.027 3.009-.027 5.188-.027 2.434 0 4.226.014 5.403.027.936-.013 2.394-.027 4.347-.027 1.765 0 4.038.014 6.82.054v-6.99l-3.169.014Zm-19.753.917c-2.166 0-3.718-.418-4.68-1.268-.963-.85-1.445-2.159-1.445-3.913 0-1.741.482-3.036 1.444-3.887.963-.85 2.515-1.268 4.668-1.268 2.18 0 3.744.432 4.707 1.268.963.85 1.444 2.146 1.444 3.887 0 1.781-.481 3.09-1.444 3.926a4.446 4.446 0 0 1-.481.351c-.963.594-2.367.904-4.213.904Z"/>
</svg>
